<svg width="15" height="15" viewBox="0 0 15 15" fill="none" xmlns="http://www.w3.org/2000/svg">
<g clip-path="url(#clip0_720_40)">
<path d="M10.7127 2.1543L10.5352 2.33221V2.1543H9.66046C9.26608 2.76373 8.43345 3.185 7.46677 3.185C6.50045 3.185 5.66782 2.76373 5.27344 2.1543L4.39873 2.1543V2.33221L4.22081 2.1543L1.07495 5.30193L2.79573 7.02412L4.39873 5.42042V13.4396H10.5345V5.42077L12.1378 7.02447L13.8582 5.30193L10.7127 2.1543Z" fill="black"/>
<path d="M10.5347 14.1465H4.39897C4.00848 14.1465 3.69156 13.8295 3.69156 13.439V7.12822L3.29612 7.52367C3.16348 7.65666 2.98344 7.73094 2.79562 7.73094C2.60816 7.73094 2.42777 7.65631 2.29513 7.52367L0.57435 5.80147C0.298459 5.52523 0.298459 5.07779 0.57435 4.80119L3.72092 1.65356C3.87443 1.4997 4.0962 1.42507 4.30984 1.45195C4.3392 1.44841 4.36891 1.44629 4.39897 1.44629H5.27369C5.5135 1.44629 5.7374 1.56796 5.86756 1.76922C6.14593 2.19933 6.77375 2.47699 7.46702 2.47699C8.16028 2.47699 8.78846 2.19933 9.06683 1.76922C9.197 1.56796 9.42054 1.44629 9.6607 1.44629L10.5354 1.44629C10.5655 1.44629 10.5952 1.44806 10.6246 1.45195C10.6536 1.44841 10.6829 1.44629 10.7126 1.44629C10.713 1.44629 10.713 1.44629 10.713 1.44629C10.9004 1.44629 11.0805 1.52092 11.2135 1.65356L14.3593 4.80084C14.6352 5.07708 14.6352 5.52452 14.3593 5.80112L12.6389 7.52367C12.5063 7.65631 12.3262 7.73094 12.1388 7.73094C12.1384 7.73094 12.1384 7.73094 12.1384 7.73094C11.951 7.73129 11.7709 7.65666 11.6383 7.52402L11.2425 7.12787V13.439C11.2421 13.8299 10.9256 14.1465 10.5347 14.1465ZM5.10639 12.7316H9.8273V5.42018C9.8273 5.13403 9.99955 4.87618 10.2638 4.76653C10.5283 4.65653 10.8322 4.71736 11.0349 4.92004L12.1377 6.02289L12.8586 5.30133L10.5952 3.03655C10.4824 3.04681 10.3713 3.02912 10.2648 2.98526C10.1909 2.95485 10.1241 2.9124 10.0661 2.86111H10.0052C9.42124 3.50486 8.48534 3.89181 7.46702 3.89181C6.4487 3.89181 5.51315 3.50486 4.92882 2.86111H4.86799C4.81033 2.9124 4.74348 2.95449 4.66956 2.98526C4.56239 3.02948 4.44849 3.04504 4.33849 3.03655L2.07477 5.30168L2.79562 6.02324L3.89813 4.92004C4.10045 4.71736 4.40463 4.65688 4.6692 4.76653C4.93378 4.87618 5.10603 5.13403 5.10603 5.42018L5.10603 12.7316H5.10639Z" fill="black"/>
</g>
<defs>
<clipPath id="clip0_720_40">
<rect width="14.1988" height="14.1988" fill="white" transform="translate(0.36792 0.698242)"/>
</clipPath>
</defs>
</svg>
