<svg width="83" height="83" viewBox="0 0 83 83" fill="none" xmlns="http://www.w3.org/2000/svg">
<path d="M21.1571 45.3852L21.1571 32.7259L18.9971 34.8859C18.2726 35.6123 17.2892 36.018 16.2633 36.018C15.2393 36.018 14.254 35.6104 13.5295 34.8859L4.13023 26.789C2.62326 25.2801 2.62326 22.8361 4.13023 21.3253L21.3174 4.13227C22.1559 3.29184 23.3673 2.88419 24.5342 3.03102C24.6946 3.0117 24.8569 3.0001 25.0211 3.0001H29.799C31.1089 3.0001 32.3318 3.66472 33.0428 4.76404C34.5633 7.11337 37.9926 8.63 41.7794 8.63C45.5661 8.63 48.9974 7.11337 50.5179 4.76404C51.2289 3.66472 52.4499 3.0001 53.7617 3.0001L58.5396 3.0001C58.7038 3.0001 58.8661 3.00977 59.0265 3.03102C59.1849 3.0117 59.3453 3.0001 59.5075 3.0001C60.5315 3.0001 61.5168 3.40776 62.2433 4.13227L79.4266 21.3233C80.9336 22.8322 80.9336 25.2762 79.4266 26.7871L70.0293 34.8859C69.3048 35.6104 68.3214 36.018 67.2974 36.018C66.2735 36.02 65.2881 35.6123 64.5636 34.8878L62.4017 32.724V45.3852" stroke="white" stroke-width="4.70945" stroke-linecap="round" stroke-linejoin="round"/>
<g clip-path="url(#clip0_721_104)">
<path fill-rule="evenodd" clip-rule="evenodd" d="M12.0577 45.0671C12.6208 44.8073 13.0576 44.3344 13.272 43.7524C13.4865 43.1705 13.461 42.5272 13.2011 41.9641C13.0725 41.6853 12.8901 41.4345 12.6646 41.2261C12.439 41.0178 12.1746 40.8559 11.8864 40.7497C11.3045 40.5353 10.6612 40.5608 10.0981 40.8206C8.47527 41.5689 7.03951 42.4481 5.97321 43.4864C4.90691 44.5433 4.04639 45.9323 4.04639 47.6206C4.04639 50.1741 5.9545 52.0168 7.89535 53.2374C9.95312 54.5375 12.7732 55.6225 16.0563 56.4924C22.6505 58.2509 31.6299 59.3125 41.4604 59.3125C41.9234 59.3125 42.3817 59.3125 42.8354 59.3031L37.4664 64.6721C37.249 64.8895 37.0766 65.1476 36.9589 65.4316C36.8412 65.7157 36.7807 66.0202 36.7807 66.3276C36.7807 66.6351 36.8412 66.9396 36.9589 67.2236C37.0766 67.5077 37.249 67.7658 37.4664 67.9832C37.9055 68.4223 38.5011 68.669 39.122 68.669C39.4295 68.669 39.7339 68.6084 40.018 68.4907C40.3021 68.3731 40.5602 68.2006 40.7776 67.9832L50.1311 58.6297C50.3489 58.4125 50.5216 58.1544 50.6395 57.8703C50.7574 57.5863 50.8181 57.2817 50.8181 56.9741C50.8181 56.6665 50.7574 56.362 50.6395 56.0779C50.5216 55.7938 50.3489 55.5358 50.1311 55.3186L40.7776 45.9651C40.5602 45.7476 40.3021 45.5752 40.018 45.4575C39.7339 45.3399 39.4295 45.2793 39.122 45.2793C38.8145 45.2793 38.5101 45.3399 38.226 45.4575C37.942 45.5752 37.6839 45.7476 37.4664 45.9651C37.249 46.1825 37.0766 46.4406 36.9589 46.7246C36.8412 47.0087 36.7807 47.3132 36.7807 47.6206C36.7807 47.9281 36.8412 48.2326 36.9589 48.5166C37.0766 48.8007 37.249 49.0588 37.4664 49.2762L42.8213 54.6264L41.4604 54.6357C31.9198 54.6357 23.3614 53.6022 17.2629 51.9747C14.1949 51.1562 11.8799 50.2256 10.3881 49.2855C8.77926 48.2707 8.72314 47.6487 8.72314 47.6206C8.72314 47.6066 8.72314 47.3447 9.24693 46.8256C9.78476 46.3018 10.6967 45.6938 12.053 45.0671H12.0577ZM72.8227 40.8206C72.2596 40.5608 71.6163 40.5353 71.0343 40.7497C70.4524 40.9641 69.9795 41.401 69.7196 41.9641C69.4598 42.5272 69.4343 43.1705 69.6487 43.7524C69.8632 44.3344 70.3 44.8073 70.8631 45.0671C72.2287 45.6938 73.136 46.3018 73.6692 46.8303C74.1976 47.3447 74.1976 47.6066 74.1976 47.6206C74.1976 47.6347 74.1976 47.9246 73.5897 48.4952C72.9723 49.0657 71.9434 49.7111 70.4235 50.3659C67.407 51.6754 62.9594 52.8118 57.5016 53.5788C56.8961 53.6752 56.3526 54.0055 55.9883 54.4987C55.624 54.9919 55.4679 55.6084 55.5538 56.2155C55.6396 56.8227 55.9605 57.3718 56.4473 57.7446C56.9341 58.1174 57.5479 58.2841 58.1564 58.2088C63.8246 57.4137 68.7258 56.1978 72.2802 54.6638C74.0573 53.8968 75.6147 52.9942 76.7699 51.9186C77.9203 50.8476 78.8744 49.4071 78.8744 47.6206C78.8744 45.9276 78.0139 44.534 76.9476 43.4911C75.8813 42.4481 74.4455 41.5689 72.8227 40.8206Z" fill="white"/>
<path opacity="0.9" d="M20.7913 63.8604V72.756C20.7913 73.912 21.7284 74.8491 22.8843 74.8491H60.56C61.716 74.8491 62.6531 73.912 62.6531 72.756V63.8604" stroke="white" stroke-width="4.70945" stroke-linecap="round"/>
</g>
<defs>
<clipPath id="clip0_721_104">
<rect width="74.828" height="74.828" fill="white" transform="translate(4.04639 7.86816)"/>
</clipPath>
</defs>
</svg>
