<svg width="13" height="15" viewBox="0 0 13 15" fill="none" xmlns="http://www.w3.org/2000/svg">
<path d="M1.50067 2.5C0.886674 1.616 1.42667 0.538 2.35867 0L6.00067 6.226L9.64267 0C10.5747 0.538 11.1147 1.616 10.5007 2.5L6.81067 7.61L8.36667 10.271C8.91802 9.99017 9.55393 9.92378 10.1514 10.0847C10.7489 10.2456 11.2654 10.6223 11.6012 11.142C11.937 11.6617 12.0681 12.2875 11.9692 12.8983C11.8703 13.5091 11.5484 14.0615 11.0658 14.4487C10.5831 14.8359 9.97408 15.0303 9.35637 14.9945C8.73866 14.9586 8.15621 14.6949 7.72165 14.2544C7.2871 13.814 7.03133 13.228 7.00381 12.6099C6.9763 11.9917 7.17898 11.3853 7.57267 10.908L6.00067 8.73L4.42867 10.907C4.82237 11.3843 5.02505 11.9907 4.99753 12.6089C4.97001 13.227 4.71425 13.813 4.27969 14.2534C3.84514 14.6939 3.26269 14.9576 2.64498 14.9935C2.02727 15.0293 1.4182 14.8349 0.935576 14.4477C0.452948 14.0605 0.131054 13.5081 0.032151 12.8973C-0.0667518 12.2865 0.0643643 11.6607 0.40014 11.141C0.735915 10.6213 1.25249 10.2446 1.84996 10.0837C2.44742 9.92278 3.08333 9.98917 3.63467 10.27L5.19067 7.61L1.50067 2.5ZM4.00067 12.5C4.00067 12.1022 3.84264 11.7206 3.56133 11.4393C3.28003 11.158 2.8985 11 2.50067 11C2.10285 11 1.72132 11.158 1.44001 11.4393C1.15871 11.7206 1.00067 12.1022 1.00067 12.5C1.00067 12.8978 1.15871 13.2794 1.44001 13.5607C1.72132 13.842 2.10285 14 2.50067 14C2.8985 14 3.28003 13.842 3.56133 13.5607C3.84264 13.2794 4.00067 12.8978 4.00067 12.5ZM11.0007 12.5C11.0007 12.1022 10.8426 11.7206 10.5613 11.4393C10.28 11.158 9.8985 11 9.50067 11C9.10285 11 8.72132 11.158 8.44001 11.4393C8.15871 11.7206 8.00067 12.1022 8.00067 12.5C8.00067 12.8978 8.15871 13.2794 8.44001 13.5607C8.72132 13.842 9.10285 14 9.50067 14C9.8985 14 10.28 13.842 10.5613 13.5607C10.8426 13.2794 11.0007 12.8978 11.0007 12.5Z" fill="white"/>
</svg>
