<svg width="18" height="17" viewBox="0 0 18 17" fill="none" xmlns="http://www.w3.org/2000/svg">
<path d="M13.1625 1.06372L12.9408 1.28588V1.06372H11.8486C11.3561 1.82471 10.3164 2.35073 9.10937 2.35073C7.90274 2.35073 6.86306 1.82471 6.37061 1.06372H5.27837V1.28588L5.05621 1.06372L1.12805 4.99409L3.27675 7.14456L5.27837 5.14205L5.27837 15.1555H12.9399V5.14249L14.942 7.145L17.0902 4.99409L13.1625 1.06372Z" fill="white"/>
<path d="M12.9399 16.0388H5.27835C4.79076 16.0388 4.39502 15.6431 4.39502 15.1555L4.39502 7.27532L3.90124 7.7691C3.73562 7.93516 3.51081 8.02791 3.27629 8.02791C3.04221 8.02791 2.81696 7.93472 2.65133 7.7691L0.502636 5.61863C0.158138 5.27369 0.158138 4.71499 0.502636 4.36961L4.43168 0.439235C4.62336 0.247111 4.90029 0.15392 5.16705 0.187487C5.20371 0.18307 5.24081 0.18042 5.27835 0.18042L6.37059 0.18042C6.67004 0.18042 6.94961 0.332352 7.11214 0.583659C7.45973 1.12072 8.24369 1.46743 9.10935 1.46743C9.97501 1.46743 10.7594 1.12072 11.107 0.583659C11.2695 0.332352 11.5487 0.18042 11.8486 0.18042L12.9408 0.18042C12.9783 0.18042 13.0154 0.182628 13.0521 0.187487C13.0883 0.18307 13.125 0.18042 13.1621 0.18042C13.1625 0.18042 13.1625 0.18042 13.1625 0.18042C13.3966 0.18042 13.6214 0.273611 13.7875 0.439235L17.7156 4.36916C18.0601 4.7141 18.0601 5.27281 17.7156 5.61819L15.5674 7.7691C15.4017 7.93472 15.1769 8.02791 14.9429 8.02791C14.9424 8.02791 14.9424 8.02791 14.9424 8.02791C14.7083 8.02835 14.4835 7.93516 14.3179 7.76954L13.8237 7.27487V15.1555C13.8232 15.6435 13.4279 16.0388 12.9399 16.0388ZM6.16168 14.2722H12.0566V5.14252C12.0566 4.78521 12.2717 4.46324 12.6016 4.32632C12.932 4.18897 13.3113 4.26493 13.5644 4.51801L14.9415 5.89511L15.8416 4.99412L13.0154 2.16614C12.8745 2.17895 12.7359 2.15687 12.6029 2.1021C12.5106 2.06412 12.4271 2.01112 12.3547 1.94708H12.2787C11.5495 2.75091 10.3809 3.23409 9.10935 3.23409C7.8378 3.23409 6.6696 2.75091 5.93997 1.94708H5.864C5.79201 2.01112 5.70853 2.06368 5.61623 2.1021C5.4824 2.15731 5.34019 2.17674 5.20283 2.16614L2.37618 4.99456L3.27629 5.89556L4.65296 4.51801C4.90559 4.26493 5.28542 4.18941 5.61578 4.32632C5.94615 4.46324 6.16124 4.78521 6.16124 5.14252L6.16124 14.2722H6.16168Z" fill="white"/>
</svg>
