<svg width="24" height="24" viewBox="0 0 24 24" fill="none" xmlns="http://www.w3.org/2000/svg">
<g clip-path="url(#clip0_426_7)">
<path d="M5.8125 6.3252C5.51413 6.3252 5.22798 6.44372 5.017 6.6547C4.80603 6.86568 4.6875 7.15183 4.6875 7.4502V8.5752C4.6875 8.87356 4.80603 9.15971 5.017 9.37069C5.22798 9.58167 5.51413 9.7002 5.8125 9.7002H6.375V19.8252C6.375 20.4219 6.61205 20.9942 7.03401 21.4162C7.45597 21.8381 8.02826 22.0752 8.625 22.0752H15.375C15.9717 22.0752 16.544 21.8381 16.966 21.4162C17.3879 20.9942 17.625 20.4219 17.625 19.8252V9.7002H18.1875C18.4859 9.7002 18.772 9.58167 18.983 9.37069C19.194 9.15971 19.3125 8.87356 19.3125 8.5752V7.4502C19.3125 7.15183 19.194 6.86568 18.983 6.6547C18.772 6.44372 18.4859 6.3252 18.1875 6.3252H14.25C14.25 6.02683 14.1315 5.74068 13.9205 5.5297C13.7095 5.31872 13.4234 5.2002 13.125 5.2002H10.875C10.5766 5.2002 10.2905 5.31872 10.0795 5.5297C9.86853 5.74068 9.75 6.02683 9.75 6.3252H5.8125ZM9.1875 10.8252C9.33668 10.8252 9.47976 10.8845 9.58525 10.9899C9.69074 11.0954 9.75 11.2385 9.75 11.3877V19.2627C9.75 19.4119 9.69074 19.555 9.58525 19.6604C9.47976 19.7659 9.33668 19.8252 9.1875 19.8252C9.03832 19.8252 8.89524 19.7659 8.78975 19.6604C8.68426 19.555 8.625 19.4119 8.625 19.2627V11.3877C8.625 11.2385 8.68426 11.0954 8.78975 10.9899C8.89524 10.8845 9.03832 10.8252 9.1875 10.8252ZM12 10.8252C12.1492 10.8252 12.2923 10.8845 12.3977 10.9899C12.5032 11.0954 12.5625 11.2385 12.5625 11.3877V19.2627C12.5625 19.4119 12.5032 19.555 12.3977 19.6604C12.2923 19.7659 12.1492 19.8252 12 19.8252C11.8508 19.8252 11.7077 19.7659 11.6023 19.6604C11.4968 19.555 11.4375 19.4119 11.4375 19.2627V11.3877C11.4375 11.2385 11.4968 11.0954 11.6023 10.9899C11.7077 10.8845 11.8508 10.8252 12 10.8252ZM15.375 11.3877V19.2627C15.375 19.4119 15.3157 19.555 15.2102 19.6604C15.1048 19.7659 14.9617 19.8252 14.8125 19.8252C14.6633 19.8252 14.5202 19.7659 14.4148 19.6604C14.3093 19.555 14.25 19.4119 14.25 19.2627V11.3877C14.25 11.2385 14.3093 11.0954 14.4148 10.9899C14.5202 10.8845 14.6633 10.8252 14.8125 10.8252C14.9617 10.8252 15.1048 10.8845 15.2102 10.9899C15.3157 11.0954 15.375 11.2385 15.375 11.3877Z" fill="white"/>
</g>
<defs>
<clipPath id="clip0_426_7">
<rect width="18" height="18" fill="white" transform="translate(3 5.2002)"/>
</clipPath>
</defs>
</svg>
